<svg width="50" height="50" viewBox="0 0 50 50" fill="none" xmlns="http://www.w3.org/2000/svg">
<circle cx="25" cy="25" r="25" fill="#585858"/>
<path d="M31.0096 16.1057H30.649C30.649 13.7359 30.2727 11.1212 28.2855 9.83008C26.3027 8.5419 23.7877 8.49524 21.7364 9.84204C19.7589 11.1405 19.351 13.74 19.351 16.1057H18.9904V19.4711H19.9519L21.274 23.1971C21.274 24.4749 20.4199 25.595 19.1878 25.9333L15.1442 27.0432C13.7012 27.5422 12.8319 28.1965 12.1659 29.4581C11.2578 31.1785 11.1779 33.1966 11.1779 35.1419C11.1779 36.1851 11.6002 37.2099 12.5338 37.6753C18.0315 40.4162 32.1665 40.1996 37.2354 37.8065C38.2931 37.3071 38.7019 36.1383 38.7019 34.9686V34.7004C38.7019 33.044 38.6906 31.3467 38.0974 29.8002C37.3956 27.9705 36.2933 27.402 34.375 27.0432L30.5658 25.9549C29.3345 25.6031 28.4856 24.4777 28.4856 23.1971L29.9279 19.4711H31.0096V16.1057Z" fill="white"/>
</svg>
